<svg width="601" height="199" viewBox="0 0 601 199" fill="none" xmlns="http://www.w3.org/2000/svg">
<rect x="3.5" y="3.5" width="192" height="192" rx="96" stroke="white" stroke-width="7"/>
<path d="M66 47.667V154.334L162 101L66 47.667Z" stroke="white" stroke-width="10.6667" stroke-linejoin="round"/>
<path d="M66 47.667L124.667 122.334" stroke="white" stroke-width="10.6667"/>
<path d="M66 154.334L124.667 79.667" stroke="white" stroke-width="10.6667"/>
<path d="M234.9 134H220.9V81.5C220.9 72.7 225.033 68.3 233.3 68.3H240.7C245.567 68.3 249.033 69.9 251.1 73.1C253.033 69.9 256.5 68.3 261.5 68.3H268.9C277.167 68.3 281.3 72.7 281.3 81.5V134H267.3V80.3C267.3 79.7667 267.1 79.3 266.7 78.9C266.367 78.5 265.933 78.3 265.4 78.3H260C259.467 78.3 259 78.5 258.6 78.9C258.267 79.3 258.1 79.7667 258.1 80.3V134H244.1V80.3C244.1 79.7667 243.9 79.3 243.5 78.9C243.167 78.5 242.733 78.3 242.2 78.3H236.8C236.267 78.3 235.8 78.5 235.4 78.9C235.067 79.3 234.9 79.7667 234.9 80.3V134ZM313.122 85.2H326.522V134H314.322V131.5C312.255 133.833 309.122 135 304.922 135H302.822C294.555 135 290.422 130.6 290.422 121.8V85.2H303.822V123.4C303.822 123.933 303.989 124.4 304.322 124.8C304.722 125.2 305.189 125.4 305.722 125.4H311.222C311.755 125.4 312.189 125.2 312.522 124.8C312.922 124.4 313.122 123.933 313.122 123.4V85.2ZM358.637 103.4C366.903 103.4 371.037 107.8 371.037 116.6V121.8C371.037 130.6 366.903 135 358.637 135H347.537C339.27 135 335.137 130.6 335.137 121.8V118.7H347.537V123.1C347.537 123.633 347.703 124.1 348.037 124.5C348.437 124.9 348.903 125.1 349.437 125.1H357.637C358.17 125.1 358.603 124.9 358.937 124.5C359.337 124.1 359.537 123.633 359.537 123.1V117.1C359.537 116.567 359.337 116.1 358.937 115.7C358.603 115.3 358.17 115.1 357.637 115.1H347.337C339.07 115.1 334.937 110.7 334.937 101.9V97.4C334.937 88.6 339.07 84.2 347.337 84.2H357.837C366.103 84.2 370.237 88.6 370.237 97.4V99.2H357.837V96.1C357.837 95.5667 357.637 95.1 357.237 94.7C356.903 94.3 356.47 94.1 355.937 94.1H348.337C347.803 94.1 347.337 94.3 346.937 94.7C346.603 95.1 346.437 95.5667 346.437 96.1V101.4C346.437 101.933 346.603 102.4 346.937 102.8C347.337 103.2 347.803 103.4 348.337 103.4H358.637ZM392.498 79.1C391.098 80.5 389.398 81.2 387.398 81.2C385.398 81.2 383.665 80.5 382.198 79.1C380.732 77.6333 379.998 75.9 379.998 73.9C379.998 71.8333 380.732 70.1 382.198 68.7C383.665 67.2333 385.398 66.5 387.398 66.5C389.398 66.5 391.098 67.2333 392.498 68.7C393.965 70.1 394.698 71.8333 394.698 73.9C394.698 75.9667 393.965 77.7 392.498 79.1ZM380.698 134V85.2H394.098V134H380.698ZM439.608 104.4H426.208V95.8C426.208 95.2667 426.008 94.8 425.608 94.4C425.274 94 424.841 93.8 424.308 93.8H418.808C418.274 93.8 417.808 94 417.408 94.4C417.074 94.8 416.908 95.2667 416.908 95.8V123.4C416.908 123.933 417.074 124.4 417.408 124.8C417.808 125.2 418.274 125.4 418.808 125.4H424.308C424.841 125.4 425.274 125.2 425.608 124.8C426.008 124.4 426.208 123.933 426.208 123.4V114.8H439.608V121.8C439.608 130.6 435.474 135 427.208 135H415.908C407.641 135 403.508 130.6 403.508 121.8V97.4C403.508 88.6 407.641 84.2 415.908 84.2H427.208C435.474 84.2 439.608 88.6 439.608 97.4V104.4ZM500.452 98.6C504.785 100.133 506.952 103.667 506.952 109.2V120.8C506.952 129.6 502.818 134 494.552 134H468.852V69.3H493.752C502.018 69.3 506.152 73.7 506.152 82.5V88.4C506.152 93.7333 504.252 97.1333 500.452 98.6ZM490.252 78.8H482.852V96.1H490.252C490.785 96.1 491.218 95.9 491.552 95.5C491.952 95.1 492.152 94.6333 492.152 94.1V80.8C492.152 80.2667 491.952 79.8 491.552 79.4C491.218 79 490.785 78.8 490.252 78.8ZM492.952 122.4V107.9C492.952 107.367 492.752 106.9 492.352 106.5C492.018 106.1 491.585 105.9 491.052 105.9H482.852V124.4H491.052C491.585 124.4 492.018 124.2 492.352 123.8C492.752 123.4 492.952 122.933 492.952 122.4ZM552.108 97.4V121.8C552.108 130.6 547.974 135 539.708 135H528.408C520.141 135 516.008 130.6 516.008 121.8V97.4C516.008 88.6 520.141 84.2 528.408 84.2H539.708C547.974 84.2 552.108 88.6 552.108 97.4ZM538.708 124.6V94.5C538.708 93.9667 538.508 93.5 538.108 93.1C537.774 92.7 537.341 92.5 536.808 92.5H531.308C530.774 92.5 530.308 92.7 529.908 93.1C529.574 93.5 529.408 93.9667 529.408 94.5V124.6C529.408 125.133 529.574 125.6 529.908 126C530.308 126.4 530.774 126.6 531.308 126.6H536.808C537.341 126.6 537.774 126.4 538.108 126C538.508 125.6 538.708 125.133 538.708 124.6ZM578.423 118L571.023 134H557.123L570.723 108L558.023 85.2H572.623L578.423 99.8L584.223 85.2H598.823L586.123 108L599.723 134H585.823L578.423 118Z" fill="white"/>
</svg>
